<svg width="110" height="20" viewBox="0 0 110 20" fill="none" xmlns="http://www.w3.org/2000/svg">
<g clip-path="url(#clip0_2806_1205)">
<path d="M6.82068 19.8902C5.41355 19.8902 4.1986 19.584 3.17582 18.9716C2.15956 18.3593 1.37456 17.5026 0.820827 16.4016C0.273609 15.3007 0 14.0206 0 12.5613C0 11.102 0.273609 9.82193 0.820827 8.72097C1.37456 7.62001 2.15956 6.76334 3.17582 6.15097C4.1986 5.53861 5.41355 5.23242 6.82068 5.23242C8.43628 5.23242 9.79129 5.63307 10.8857 6.43436C11.9867 7.23565 12.7619 8.32032 13.2114 9.68838L10.5339 10.431C10.2734 9.57763 9.83364 8.9164 9.21476 8.44736C8.59588 7.97179 7.79786 7.73401 6.82068 7.73401C5.9282 7.73401 5.18229 7.9327 4.58295 8.33009C3.99013 8.72748 3.54389 9.28773 3.24422 10.0108C2.94455 10.734 2.79472 11.5841 2.79472 12.5613C2.79472 13.5385 2.94455 14.3886 3.24422 15.1117C3.54389 15.8349 3.99013 16.3951 4.58295 16.7925C5.18229 17.1899 5.9282 17.3886 6.82068 17.3886C7.79786 17.3886 8.59588 17.1508 9.21476 16.6752C9.83364 16.1997 10.2734 15.5384 10.5339 14.6916L13.2114 15.4342C12.7619 16.8023 11.9867 17.8869 10.8857 18.6882C9.79129 19.4895 8.43628 19.8902 6.82068 19.8902Z" fill="#242424"/>
<path d="M18.2945 19.8902C17.5389 19.8902 16.8972 19.7469 16.3695 19.4602C15.8484 19.1671 15.451 18.7794 15.1774 18.2974C14.9103 17.8088 14.7767 17.2713 14.7767 16.685C14.7767 16.1964 14.8516 15.7502 15.0015 15.3463C15.1513 14.9424 15.3923 14.5873 15.7246 14.2811C16.0633 13.9684 16.5161 13.7079 17.0829 13.4994C17.4737 13.3561 17.9395 13.229 18.4802 13.1183C19.0209 13.0075 19.6333 12.9033 20.3173 12.8056C21.0013 12.7014 21.7537 12.5874 22.5746 12.4636L21.6169 12.9913C21.6169 12.3659 21.4671 11.9066 21.1674 11.6134C20.8678 11.3203 20.3662 11.1737 19.6626 11.1737C19.2717 11.1737 18.8646 11.2682 18.4411 11.4571C18.0177 11.646 17.7213 11.9815 17.5519 12.4636L15.148 11.7014C15.4151 10.8284 15.9168 10.1183 16.6529 9.57112C17.389 9.02389 18.3923 8.75028 19.6626 8.75028C20.5942 8.75028 21.4215 8.8936 22.1446 9.18024C22.8677 9.46688 23.4149 9.96199 23.7863 10.6656C23.9947 11.0564 24.1185 11.4473 24.1576 11.8382C24.1967 12.2291 24.2162 12.6655 24.2162 13.1476V19.597H21.8906V17.4277L22.2228 17.8772C21.7081 18.5873 21.1512 19.1019 20.5518 19.4211C19.959 19.7338 19.2066 19.8902 18.2945 19.8902ZM18.8613 17.799C19.3499 17.799 19.7603 17.7143 20.0926 17.5449C20.4313 17.369 20.6984 17.1703 20.8938 16.9488C21.0958 16.7274 21.2326 16.5417 21.3042 16.3919C21.4411 16.1052 21.5192 15.773 21.5388 15.3951C21.5648 15.0108 21.5779 14.6916 21.5779 14.4375L22.3596 14.6329C21.5713 14.7632 20.9329 14.874 20.4443 14.9652C19.9557 15.0499 19.5616 15.128 19.262 15.1997C18.9623 15.2714 18.6984 15.3495 18.4704 15.4342C18.2099 15.5384 17.9981 15.6525 17.8353 15.7762C17.6789 15.8935 17.5617 16.0238 17.4835 16.1671C17.4118 16.3104 17.376 16.47 17.376 16.6459C17.376 16.887 17.4346 17.0954 17.5519 17.2713C17.6757 17.4407 17.8483 17.571 18.0698 17.6622C18.2913 17.7534 18.5551 17.799 18.8613 17.799Z" fill="#242424"/>
<path d="M26.9525 19.8616V5.23242H29.6104V19.8616H26.9525Z" fill="#242424"/>
<path d="M32.7354 19.8616V5.23242H35.3933V19.8616H32.7354Z" fill="#242424"/>
<path d="M50.9479 18.9383C50.053 19.844 48.5925 19.8501 47.69 18.9519L45.2217 16.4953L46.8633 14.8537L50.9479 18.9383ZM44.3618 19.8902C42.9546 19.8902 41.7397 19.584 40.7169 18.9716C39.7006 18.3593 38.9156 17.5026 38.3619 16.4016C37.8147 15.3007 37.5411 14.0206 37.5411 12.5613C37.5411 11.102 37.8147 9.82193 38.3619 8.72097C38.9156 7.62001 39.7006 6.76334 40.7169 6.15097C41.7397 5.53861 42.9546 5.23242 44.3618 5.23242C45.7689 5.23242 46.9806 5.53861 47.9969 6.15097C49.0196 6.76334 49.8046 7.62001 50.3518 8.72097C50.9056 9.82193 51.1824 11.102 51.1824 12.5613C51.1824 14.0206 50.9056 15.3007 50.3518 16.4016C49.8046 17.5026 49.0196 18.3593 47.9969 18.9716C46.9806 19.584 45.7689 19.8902 44.3618 19.8902ZM44.3618 17.3886C45.2542 17.4016 45.9969 17.2094 46.5897 16.812C47.1825 16.4147 47.6255 15.8511 47.9187 15.1215C48.2183 14.3919 48.3682 13.5385 48.3682 12.5613C48.3682 11.5841 48.2183 10.7372 47.9187 10.0206C47.6255 9.30402 47.1825 8.74702 46.5897 8.34964C45.9969 7.95225 45.2542 7.74704 44.3618 7.73401C43.4693 7.72098 42.7266 7.91316 42.1338 8.31055C41.541 8.70794 41.0947 9.27145 40.7951 10.0011C40.5019 10.7307 40.3553 11.5841 40.3553 12.5613C40.3553 13.5385 40.5019 14.3854 40.7951 15.102C41.0947 15.8186 41.541 16.3756 42.1338 16.773C42.7266 17.1703 43.4693 17.3756 44.3618 17.3886Z" fill="#242424"/>
<path d="M55.3806 19.8763L52.156 9.02389L54.7552 9.04344L56.6705 15.3365L58.6151 9.04344H60.8235L62.7681 15.3365L64.6833 9.04344H67.2826L64.0579 19.8763H62.0254L59.7193 12.7176L57.4132 19.8763H55.3806Z" fill="#242424"/>
<path d="M69.2458 7.57766V5.23242H71.9037V7.57766H69.2458ZM69.2458 19.8763V9.04344H71.9037V19.8763H69.2458Z" fill="#242424"/>
<path d="M74.8137 19.8763L74.8333 5.52558H77.5303V14.1248L81.1068 9.04344H84.3901L80.5791 14.3202L84.7985 19.8689H81.3393L77.5303 14.5157V19.8763H74.8137Z" fill="#242424"/>
<path fill-rule="evenodd" clip-rule="evenodd" d="M109.99 2.07447C109.135 2.29434 108.931 2.52072 108.737 3.4799C108.728 3.52385 108.666 3.52385 108.657 3.4799C108.463 2.52072 108.258 2.29434 107.404 2.07447C107.363 2.0639 107.363 2.00553 107.404 1.99497C108.258 1.7751 108.463 1.54872 108.657 0.589536C108.666 0.545594 108.728 0.545594 108.737 0.589536C108.931 1.54872 109.135 1.7751 109.99 1.99497C110.031 2.00554 110.031 2.0639 109.99 2.07447ZM88.5195 19.8575L92.8191 5.78607H96.7864L101.086 19.8575H98.3499L97.4451 16.926H92.1466L91.2556 19.8575H88.5195ZM94.7754 8.27676L96.679 14.4439H92.901L94.7754 8.27676ZM103.033 5.78607V19.8575H105.691V8.83057C105.579 6.46427 104.039 5.78607 103.033 5.78607ZM106.529 7.5928C106.907 5.71804 107.307 5.27557 108.978 4.84583C109.058 4.82517 109.058 4.71111 108.978 4.69045C107.307 4.26071 106.907 3.81824 106.529 1.94347C106.512 1.85759 106.389 1.85759 106.372 1.94347C105.994 3.81824 105.593 4.26071 103.922 4.69045C103.842 4.71109 103.842 4.82517 103.922 4.84583C105.593 5.27557 105.994 5.71804 106.372 7.5928C106.389 7.67869 106.512 7.67869 106.529 7.5928Z" fill="url(#paint0_linear_2806_1205)"/>
</g>
<defs>
<linearGradient id="paint0_linear_2806_1205" x1="88.5195" y1="10.207" x2="110.021" y2="10.207" gradientUnits="userSpaceOnUse">
<stop stop-color="#FFA873"/>
<stop offset="0.5" stop-color="#D44CFF"/>
<stop offset="1" stop-color="#FF43A9"/>
</linearGradient>
<clipPath id="clip0_2806_1205">
<rect width="110" height="20" fill="white"/>
</clipPath>
</defs>
</svg>
