<svg width="75" height="22" viewBox="0 0 75 22" fill="none" xmlns="http://www.w3.org/2000/svg">
<path d="M8.24463 3.66406V9.56922H2.82381V3.66406H0.251953V17.7605H2.82451V12.047H8.24394V17.7605H10.8172V3.66406H8.24463ZM19.0515 13.2043C19.0515 13.7693 18.8272 14.3112 18.428 14.7107C18.0288 15.1102 17.4873 15.3347 16.9227 15.3347C16.3582 15.3347 15.8167 15.1102 15.4175 14.7107C15.0183 14.3112 14.794 13.7693 14.794 13.2043V7.16605H12.3538V13.2043C12.3538 14.4158 12.8347 15.5777 13.6907 16.4344C14.5467 17.2911 15.7076 17.7723 16.9182 17.7723C18.1288 17.7723 19.2898 17.2911 20.1458 16.4344C21.0018 15.5777 21.4827 14.4158 21.4827 13.2043V7.16605H19.0515V13.2043ZM37.1332 7.78827C37.1332 6.5501 37.9512 6.15782 38.8473 6.15782C39.5699 6.15782 40.5238 6.70827 41.1483 7.37578L42.7461 5.49031C41.9483 4.41031 40.3302 3.66406 39.0053 3.66406C36.3576 3.66406 34.4429 5.21578 34.4429 7.78827C34.4429 12.5612 40.2717 11.0464 40.2717 13.7178C40.2717 14.5414 39.4725 15.2688 38.5576 15.2688C37.1144 15.2688 36.6465 14.563 35.9837 13.8161L34.2097 15.6618C35.3445 17.0554 36.744 17.7633 38.4198 17.7633C40.9352 17.7633 42.9585 16.1928 42.9585 13.7373C42.9585 8.43906 37.129 10.0855 37.129 7.78827M73.1935 15.5085C71.7516 15.5085 71.3415 14.8842 71.3415 13.9282V9.69534H73.5834V7.55067H71.3415V4.72107L68.8671 5.83242V14.4543C68.8671 16.6596 70.3877 17.771 72.4722 17.771C72.7994 17.7765 73.1267 17.75 73.4483 17.6929L74.0519 15.4688C73.7797 15.4876 73.4671 15.5064 73.1935 15.5064M28.3405 7.23642C27.1319 7.23642 26.288 7.5876 25.4721 8.38819V3.74837H23.0283V12.3487C23.0283 15.5678 25.3537 17.7737 27.9673 17.7737C30.8664 17.7737 33.4167 15.5287 33.4167 12.5061C33.4167 9.52115 31.0697 7.23851 28.3405 7.23851M28.3252 15.312C27.961 15.312 27.6003 15.2402 27.2639 15.1008C26.9274 14.9613 26.6216 14.7568 26.3641 14.4991C26.1066 14.2413 25.9023 13.9354 25.7629 13.5986C25.6235 13.2619 25.5518 12.9009 25.5518 12.5364C25.5518 12.1719 25.6235 11.811 25.7629 11.4743C25.9023 11.1375 26.1066 10.8315 26.3641 10.5738C26.6216 10.3161 26.9274 10.1116 27.2639 9.97212C27.6003 9.83263 27.961 9.76084 28.3252 9.76084C29.0607 9.76084 29.7662 10.0533 30.2863 10.5738C30.8064 11.0943 31.0986 11.8003 31.0986 12.5364C31.0986 13.2726 30.8064 13.9786 30.2863 14.4991C29.7662 15.0196 29.0607 15.312 28.3252 15.312ZM54.8807 12.3779C54.8807 9.34974 52.336 7.11031 49.4313 7.11031C46.8184 7.11031 44.4923 9.3156 44.4923 12.5354V21.1406H46.936V16.4945C47.7506 17.2937 48.5958 17.6462 49.8031 17.6462C52.5323 17.6462 54.8807 15.3636 54.8807 12.3779ZM52.5664 12.3473C52.5664 13.0834 52.2742 13.7894 51.7541 14.3099C51.234 14.8304 50.5285 15.1229 49.793 15.1229C49.0574 15.1229 48.352 14.8304 47.8319 14.3099C47.3118 13.7894 47.0196 13.0834 47.0196 12.3473C47.0196 11.6111 47.3118 10.9051 47.8319 10.3846C48.352 9.86409 49.0574 9.57166 49.793 9.57166C50.5285 9.57166 51.234 9.86409 51.7541 10.3846C52.2742 10.9051 52.5664 11.6111 52.5664 12.3473Z" fill="#33475B"/>
<path d="M62.7777 6.99416V4.53664C63.1022 4.38486 63.377 4.14396 63.57 3.84199C63.763 3.54002 63.8664 3.1894 63.868 2.83093V2.7745C63.868 1.72933 63.0214 0.882057 61.9771 0.882057H61.9207C61.4192 0.882057 60.9382 1.08144 60.5836 1.43634C60.2289 1.79124 60.0297 2.27259 60.0297 2.7745V2.83093C60.0314 3.1894 60.1347 3.54002 60.3277 3.84199C60.5208 4.14396 60.7955 4.38486 61.12 4.53664V6.99416C60.1874 7.13707 59.309 7.52407 58.5739 8.11597L51.8393 2.86647C51.8874 2.69297 51.9124 2.5146 51.9152 2.33553C51.916 1.91377 51.7918 1.50125 51.5584 1.15013C51.3249 0.799018 50.9926 0.525086 50.6036 0.362988C50.2145 0.20089 49.7862 0.157907 49.3727 0.239477C48.9592 0.321048 48.5792 0.523506 48.2808 0.821244C47.9823 1.11898 47.7787 1.49862 47.6959 1.91214C47.613 2.32567 47.6546 2.75449 47.8153 3.14438C47.976 3.53427 48.2486 3.8677 48.5987 4.1025C48.9487 4.3373 49.3605 4.46292 49.782 4.46348C50.1506 4.46174 50.5124 4.36323 50.8312 4.1778L57.4627 9.34229C56.867 10.243 56.5562 11.3024 56.5708 12.3825C56.5855 13.4625 56.9249 14.5131 57.5449 15.3973L55.5279 17.4165C55.3649 17.3643 55.195 17.3366 55.0238 17.3343C54.6779 17.3346 54.3398 17.4375 54.0523 17.63C53.7648 17.8225 53.5408 18.096 53.4085 18.4158C53.2763 18.7357 53.2418 19.0877 53.3093 19.4272C53.3769 19.7668 53.5435 20.0786 53.7881 20.3234C54.0327 20.5682 54.3443 20.735 54.6836 20.8026C55.0228 20.8702 55.3745 20.8356 55.6941 20.7033C56.0138 20.5709 56.2871 20.3467 56.4794 20.0589C56.6718 19.7712 56.7746 19.4329 56.7749 19.0867C56.7726 18.9154 56.7449 18.7454 56.6927 18.5822L58.6881 16.5846C59.3388 17.0859 60.0955 17.4315 60.9003 17.595C61.705 17.7584 62.5365 17.7353 63.331 17.5275C64.1255 17.3197 64.8619 16.9326 65.4838 16.3959C66.1057 15.8593 66.5966 15.1873 66.9189 14.4314C67.2413 13.6756 67.3864 12.8559 67.3433 12.0352C67.3002 11.2145 67.07 10.4146 66.6703 9.69671C66.2705 8.97883 65.7119 8.36204 65.0372 7.8936C64.3625 7.42516 63.5896 7.11749 62.7777 6.99416ZM61.9506 15.0767C61.5818 15.0869 61.2148 15.023 60.8711 14.8888C60.5274 14.7545 60.2141 14.5527 59.9497 14.2953C59.6853 14.0378 59.4751 13.73 59.3316 13.3898C59.1881 13.0497 59.1141 12.6843 59.1141 12.3151C59.1141 11.9459 59.1881 11.5804 59.3316 11.2403C59.4751 10.9002 59.6853 10.5923 59.9497 10.3349C60.2141 10.0774 60.5274 9.87562 60.8711 9.7414C61.2148 9.60718 61.5818 9.54326 61.9506 9.55341C62.6653 9.57846 63.3425 9.88013 63.8394 10.3949C64.3363 10.9096 64.6142 11.5973 64.6145 12.313C64.6149 13.0288 64.3377 13.7167 63.8413 14.232C63.3449 14.7472 62.6681 15.0496 61.9534 15.0753" fill="#FF7A59"/>
</svg>
